# xmcd
#
# Track frame offsets:
#	150
#	18683
#	34010
#	56100
#	73113
#	93655
#	114665
#	132373
#	147878
#	172583
#	195538
#
# Disc length: 2810 seconds
# Revision: 0
# Processed by: cddbd v1.5.2PL0 Copyright (c) Steve Scherf et al.
# Submitted via: dBpowerAMP V12.0
#
DISCID=9c0af80b
DTITLE=Trond Olsen Band - Mercy
DYEAR=2015
DGENRE=Blues
TTITLE0=Come On In My Kitchen
TTITLE1=Sammy´s
TTITLE2=How Can We Change
TTITLE3=Mercy
TTITLE4=Don´t Miss The Train
TTITLE5=Morning Blues
TTITLE6=My Number
TTITLE7=Real Deal
TTITLE8=Riverside
TTITLE9=How Long
TTITLE10=You´ll Be Around
EXTD=
EXTT0=
EXTT1=
EXTT2=
EXTT3=
EXTT4=
EXTT5=
EXTT6=
EXTT7=
EXTT8=
EXTT9=
EXTT10=
PLAYORDER=
